<svg width="16" height="16" viewBox="0 0 16 16" fill="none" xmlns="http://www.w3.org/2000/svg">
<rect width="16" height="16" fill="white"/>
<path d="M9.75205 8.68352C9.56163 8.68352 9.40698 8.80973 9.40698 8.96368V9.48958C9.40698 9.52974 9.44275 9.56321 9.48799 9.56321H10.0172C10.0613 9.56321 10.0982 9.5307 10.0982 9.48958V8.96368C10.0982 8.80973 9.94247 8.68352 9.7531 8.68352H9.75205Z" fill="url(#paint0_linear_3011_115)"/>
<path d="M9.15652 11.4483C9.29665 11.5005 9.40775 11.5368 9.51184 11.5649C9.52486 11.5679 9.53887 11.5709 9.55188 11.5739C9.5699 11.5543 9.59092 11.5361 9.61494 11.5194C9.64897 11.4952 9.684 11.4717 9.72103 11.4483H9.15552H9.15652Z" fill="url(#paint1_linear_3011_115)"/>
<path d="M3.08801 3.54896L4.62904 3.85152C4.14959 4.29541 3.75087 4.8249 3.45782 5.41609L8.96706 5.09462V4.78608L4.88522 3.62858L3.2156 3.15582C3.19267 3.14886 3.16775 3.16279 3.16077 3.18568L3.06209 3.50118C3.05611 3.52109 3.06807 3.54199 3.08801 3.54796V3.54896Z" fill="url(#paint2_linear_3011_115)"/>
<path d="M9.75205 6.73563C9.56163 6.73563 9.40698 6.87086 9.40698 7.0358V7.59927C9.40698 7.6423 9.44275 7.67815 9.48799 7.67815H10.0172C10.0613 7.67815 10.0982 7.64332 10.0982 7.59927V7.0358C10.0982 6.87086 9.94247 6.73563 9.7531 6.73563H9.75205Z" fill="url(#paint3_linear_3011_115)"/>
<path d="M10.0982 11.1969H8.71582C8.7665 11.2184 8.81719 11.2391 8.86688 11.2598H9.97496C10.0147 11.2391 10.0555 11.2184 10.0982 11.1969Z" fill="url(#paint4_linear_3011_115)"/>
<path d="M10.2238 5.08104V4.95059C10.2238 4.89623 10.1961 4.85057 10.161 4.85057C10.1267 4.85057 10.0981 4.89514 10.0981 4.95059V5.08104C10.0981 5.1267 10.1259 5.16475 10.161 5.16475C10.1961 5.16475 10.2238 5.12778 10.2238 5.08104Z" fill="url(#paint5_linear_3011_115)"/>
<path d="M9.34408 5.16475C9.37836 5.16475 9.40692 5.12778 9.40692 5.08104V4.95059C9.40692 4.89623 9.37917 4.85057 9.34408 4.85057C9.30981 4.85057 9.28125 4.89514 9.28125 4.95059V5.08104C9.28125 5.1267 9.309 5.16475 9.34408 5.16475Z" fill="url(#paint6_linear_3011_115)"/>
<path d="M8.30608 2.39999C7.4122 2.39999 6.56949 2.61558 5.8261 2.99762L8.97724 4.72432V4.6431C8.97724 4.60099 9.01135 4.56589 9.05448 4.56589H10.445C10.4871 4.56589 10.5222 4.59998 10.5222 4.6431V5.27081C10.5222 5.31292 10.4881 5.34802 10.445 5.34802H9.05448C9.01235 5.34802 8.97724 5.31393 8.97724 5.27081V5.16151L2.94183 6.95539C2.94183 6.95539 2.94183 6.95941 2.94183 6.96141L1.91051 7.26925C1.87841 7.27928 1.85935 7.31337 1.86938 7.34646L1.98977 7.79368C1.9978 7.82175 2.02789 7.8378 2.05598 7.82877L2.88164 7.50489C2.87461 7.61319 2.8706 7.72248 2.8706 7.83278C2.8706 8.89868 3.17859 9.89339 3.7093 10.7327C4.10858 10.6334 4.52592 10.5552 4.97136 10.497C5.84216 10.3917 6.51532 10.3968 7.15738 10.5121C7.35 10.5472 7.54363 10.5993 7.73625 10.6675C7.74126 10.6695 7.74628 10.6715 7.75129 10.6735L7.8787 10.7247C7.8787 10.7247 7.88573 10.7277 7.88874 10.7287C7.92285 10.7437 7.95695 10.7598 7.99006 10.7768C8.0021 10.7828 8.01414 10.7888 8.02718 10.7948C8.04524 10.8039 8.06129 10.8119 8.07734 10.8199L8.18268 10.2865C8.1897 10.2504 8.22181 10.2243 8.25792 10.2243H11.2415C11.2786 10.2243 11.3097 10.2504 11.3168 10.2865L11.379 10.6013C11.6508 10.5291 11.9307 10.479 12.2167 10.4549C12.4976 10.4299 12.7835 10.4299 13.0694 10.4529C13.4978 9.6758 13.7426 8.78337 13.7426 7.83278C13.7416 4.83262 11.3087 2.39999 8.30608 2.39999ZM9.74972 4.40545H8.94814C8.87992 4.40545 8.84581 4.32323 8.89397 4.2741L9.69555 3.4669C9.72564 3.43682 9.7748 3.43682 9.8049 3.4669L10.6065 4.2741C10.6546 4.32223 10.6205 4.40545 10.5523 4.40545H9.75072H9.74972ZM8.86187 5.51848H10.6366C10.6867 5.51848 10.7239 5.56561 10.7108 5.61374L10.6095 6.01383C10.6005 6.04792 10.5704 6.07199 10.5352 6.07199H8.96219C8.92708 6.07199 8.89597 6.04792 8.88795 6.01383L8.78662 5.61374C8.77458 5.56561 8.8107 5.51848 8.86086 5.51848H8.86187ZM11.0389 10.0949H8.45957C8.41342 10.0949 8.37731 10.0538 8.38333 10.0077L8.89397 6.29159C8.89898 6.25348 8.93209 6.22541 8.97021 6.22541H10.5282C10.5663 6.22541 10.5995 6.25348 10.6045 6.29159L11.1151 10.0077C11.1211 10.0538 11.086 10.0949 11.0389 10.0949Z" fill="url(#paint7_linear_3011_115)"/>
<path d="M9.75246 5.16475C9.80387 5.16475 9.84671 5.12778 9.84671 5.08104V4.95059C9.84671 4.89623 9.80509 4.85057 9.75246 4.85057C9.70105 4.85057 9.6582 4.89514 9.6582 4.95059V5.08104C9.6582 5.1267 9.69982 5.16475 9.75246 5.16475Z" fill="url(#paint8_linear_3011_115)"/>
<path d="M3.50049 11.9956C3.70316 11.8854 3.91995 11.8004 4.14177 11.7326C4.3636 11.6628 4.59148 11.6123 4.82238 11.5748C5.2852 11.501 5.76112 11.4919 6.23503 11.5445C6.47198 11.5708 6.70691 11.6153 6.93883 11.675C7.05579 11.7033 7.16973 11.7387 7.28468 11.7751C7.39761 11.8156 7.51155 11.854 7.62246 11.9005C7.73539 11.943 7.84328 11.9966 7.95218 12.0472C8.00663 12.0735 8.05906 12.1028 8.1125 12.1301L8.19216 12.1716L8.26072 12.206C8.43919 12.3051 8.62573 12.3769 8.81428 12.4326C8.86167 12.4447 8.90806 12.4619 8.95645 12.471L9.09964 12.5013L9.24483 12.5206C9.29323 12.5266 9.34264 12.5276 9.39204 12.5317C9.58867 12.5438 9.78831 12.5317 9.99199 12.5024C10.1957 12.475 10.4014 12.4265 10.6121 12.3729L10.7704 12.3294L10.9297 12.2829L11.2524 12.1878C11.686 12.0603 12.1417 11.9299 12.6166 11.8904C13.0905 11.85 13.5796 11.9167 13.994 12.118C13.7651 12.0978 13.5402 12.0988 13.3214 12.122C13.1026 12.1453 12.8899 12.1908 12.6822 12.2525C12.2657 12.3769 11.8674 12.56 11.452 12.7411C11.2443 12.8311 11.0316 12.9221 10.8097 13.002C10.5879 13.0839 10.356 13.1517 10.114 13.2013C9.872 13.2508 9.61891 13.2741 9.36381 13.27C9.30029 13.267 9.23576 13.265 9.17223 13.2589L8.98065 13.2357L8.7921 13.1982C8.72858 13.1861 8.66808 13.1659 8.60657 13.1497C8.57632 13.1406 8.54506 13.1325 8.51481 13.1224L8.42508 13.09C8.36559 13.0678 8.30509 13.0485 8.24761 13.0202L8.07519 12.9423C8.01973 12.914 7.96428 12.8837 7.90983 12.8533L7.82916 12.8078L7.7606 12.7684C7.71422 12.7421 7.66884 12.7148 7.62246 12.6895C7.52869 12.6409 7.43491 12.5903 7.33913 12.5458C6.95698 12.3607 6.55264 12.2212 6.1352 12.119C5.71675 12.0179 5.28419 11.9582 4.84356 11.9369C4.40293 11.9167 3.95423 11.9299 3.50049 11.9926V11.9956Z" fill="#394254"/>
<path d="M3.06155 11.3495C3.70605 11.1255 4.37463 10.9802 5.05326 10.8924C5.73189 10.8096 6.42658 10.7783 7.12428 10.9045C7.29795 10.9368 7.47263 10.9842 7.64329 11.0447L7.77078 11.0962C7.81294 11.1144 7.8541 11.1366 7.89627 11.1568C7.93943 11.1779 7.97457 11.1981 8.01171 11.2183L8.12314 11.2799C8.41929 11.4444 8.71042 11.6159 9.00255 11.7683C9.14911 11.842 9.29568 11.9106 9.44626 11.9631C9.59685 12.0135 9.75345 12.0478 9.91408 12.066C10.2373 12.0973 10.5766 12.069 10.915 12.0397C10.8346 12.068 10.7533 12.0942 10.672 12.1205C10.5897 12.1427 10.5074 12.1669 10.4241 12.1871C10.2574 12.2274 10.0847 12.2547 9.90805 12.2638C9.73137 12.2698 9.55167 12.2557 9.37599 12.2174C9.20132 12.178 9.03367 12.1195 8.87204 12.0549C8.5498 11.9227 8.24763 11.7673 7.94546 11.6159L7.83202 11.5584C7.79487 11.5392 7.75572 11.518 7.72259 11.5039C7.68746 11.4888 7.65433 11.4716 7.61819 11.4575L7.50877 11.4171C7.36119 11.3667 7.2076 11.3263 7.04899 11.298C6.41453 11.182 5.74393 11.182 5.07735 11.2052C4.40877 11.2304 3.73817 11.2879 3.06055 11.3485L3.06155 11.3495Z" fill="#394254"/>
<path d="M10.0981 11.8253C10.2166 11.6836 10.353 11.5595 10.4953 11.4447C10.6406 11.334 10.7939 11.2306 10.9552 11.1437C11.2777 10.9679 11.6261 10.8428 11.9844 10.7704C12.3428 10.6969 12.7101 10.6783 13.0714 10.7073C13.4328 10.7424 13.7871 10.8262 14.1196 10.97C13.7583 10.9886 13.4129 10.9917 13.0694 11.0175C12.727 11.0465 12.3906 11.091 12.0581 11.1572C11.7256 11.2244 11.3981 11.3144 11.0736 11.4281C10.9104 11.4829 10.7501 11.5481 10.5879 11.6122C10.4266 11.6805 10.2654 11.7518 10.0991 11.8253H10.0981Z" fill="#394254"/>
<path d="M4.12866 12.6218C4.28134 12.5425 4.44406 12.4856 4.60879 12.4378C4.77452 12.3951 4.94427 12.3616 5.11703 12.3453C5.46055 12.3108 5.8111 12.328 6.1506 12.3951C6.49111 12.4612 6.82157 12.5771 7.12893 12.7316C7.43528 12.8912 7.71854 13.0914 7.96161 13.3333C7.63718 13.2195 7.33183 13.0975 7.02045 12.9959C6.70907 12.8973 6.3977 12.8139 6.0823 12.7519C5.76691 12.6899 5.44749 12.6493 5.12306 12.6299C4.96034 12.6177 4.79762 12.6167 4.63189 12.6137C4.46615 12.6137 4.29942 12.6177 4.12866 12.6208V12.6218Z" fill="#394254"/>
<defs>
<linearGradient id="paint0_linear_3011_115" x1="9.40698" y1="9.12336" x2="10.0982" y2="9.12336" gradientUnits="userSpaceOnUse">
<stop stop-color="#ECD455"/>
<stop offset="1" stop-color="#FFC700"/>
</linearGradient>
<linearGradient id="paint1_linear_3011_115" x1="9.15552" y1="11.5111" x2="9.72103" y2="11.5111" gradientUnits="userSpaceOnUse">
<stop stop-color="#ECD455"/>
<stop offset="1" stop-color="#FFC700"/>
</linearGradient>
<linearGradient id="paint2_linear_3011_115" x1="3.06055" y1="4.28506" x2="8.96706" y2="4.28506" gradientUnits="userSpaceOnUse">
<stop stop-color="#ECD455"/>
<stop offset="1" stop-color="#FFC700"/>
</linearGradient>
<linearGradient id="paint3_linear_3011_115" x1="9.40698" y1="7.20689" x2="10.0982" y2="7.20689" gradientUnits="userSpaceOnUse">
<stop stop-color="#ECD455"/>
<stop offset="1" stop-color="#FFC700"/>
</linearGradient>
<linearGradient id="paint4_linear_3011_115" x1="8.71582" y1="11.2283" x2="10.0982" y2="11.2283" gradientUnits="userSpaceOnUse">
<stop stop-color="#ECD455"/>
<stop offset="1" stop-color="#FFC700"/>
</linearGradient>
<linearGradient id="paint5_linear_3011_115" x1="10.0981" y1="5.00766" x2="10.2238" y2="5.00766" gradientUnits="userSpaceOnUse">
<stop stop-color="#ECD455"/>
<stop offset="1" stop-color="#FFC700"/>
</linearGradient>
<linearGradient id="paint6_linear_3011_115" x1="9.28125" y1="5.00766" x2="9.40692" y2="5.00766" gradientUnits="userSpaceOnUse">
<stop stop-color="#ECD455"/>
<stop offset="1" stop-color="#FFC700"/>
</linearGradient>
<linearGradient id="paint7_linear_3011_115" x1="1.8667" y1="6.60995" x2="13.7426" y2="6.60995" gradientUnits="userSpaceOnUse">
<stop stop-color="#ECD455"/>
<stop offset="1" stop-color="#FFC700"/>
</linearGradient>
<linearGradient id="paint8_linear_3011_115" x1="9.6582" y1="5.00766" x2="9.84671" y2="5.00766" gradientUnits="userSpaceOnUse">
<stop stop-color="#ECD455"/>
<stop offset="1" stop-color="#FFC700"/>
</linearGradient>
</defs>
</svg>
