<svg width="197" height="226" viewBox="0 0 197 226" fill="none" xmlns="http://www.w3.org/2000/svg">
<path d="M66.5527 188.112C64.014 188.112 61.8848 187.741 60.1752 186.991C58.4657 186.25 57.1759 185.273 56.2955 184.08C55.4254 182.888 54.9545 181.602 54.9033 180.245C54.9033 180.029 54.9852 179.844 55.1388 179.669C55.3025 179.494 55.497 179.412 55.7325 179.412H59.9807C60.3288 179.412 60.5847 179.484 60.7792 179.628C60.9635 179.772 61.1375 179.957 61.291 180.162C61.4753 180.615 61.7722 181.057 62.1816 181.479C62.5911 181.9 63.1541 182.26 63.8707 182.538C64.5873 182.816 65.4779 182.96 66.5323 182.96C68.252 182.96 69.5418 182.682 70.412 182.116C71.2821 181.551 71.7018 180.8 71.7018 179.844C71.7018 179.155 71.4664 178.589 71.0057 178.167C70.545 177.746 69.8182 177.355 68.8253 177.005C67.8323 176.656 66.5118 176.285 64.8739 175.884C62.888 175.463 61.1989 174.907 59.8067 174.229C58.4145 173.55 57.3704 172.676 56.664 171.596C55.9577 170.516 55.6096 169.179 55.6096 167.585C55.6096 165.991 56.0498 164.572 56.92 163.338C57.7901 162.104 59.0287 161.127 60.6154 160.428C62.2021 159.718 64.0959 159.369 66.2968 159.369C68.0677 159.369 69.6442 159.605 71.0057 160.089C72.3672 160.572 73.5137 161.189 74.4248 161.96C75.3358 162.731 76.0319 163.554 76.5131 164.439C76.9942 165.323 77.2399 166.166 77.2706 166.989C77.2706 167.205 77.1887 167.39 77.0351 167.565C76.8713 167.74 76.6768 167.822 76.4414 167.822H71.9884C71.7223 167.822 71.4868 167.77 71.2718 167.657C71.0569 167.555 70.8829 167.369 70.76 167.102C70.5962 166.413 70.1253 165.806 69.3474 165.282C68.5694 164.768 67.5559 164.5 66.307 164.5C65.0582 164.5 63.9833 164.737 63.2258 165.22C62.4683 165.703 62.0895 166.434 62.0895 167.411C62.0895 168.048 62.284 168.593 62.6628 169.025C63.0518 169.467 63.6967 169.848 64.6077 170.187C65.5188 170.516 66.737 170.886 68.2418 171.288C70.5758 171.771 72.4696 172.336 73.9232 173.005C75.3768 173.673 76.4516 174.527 77.1375 175.576C77.8234 176.625 78.1714 177.951 78.1714 179.545C78.1714 181.324 77.6698 182.857 76.6768 184.132C75.6839 185.407 74.3224 186.384 72.5821 187.063C70.8419 187.741 68.8253 188.081 66.522 188.081L66.5527 188.112Z" fill="white"/>
<path d="M88.445 188.112C87.0229 188.112 85.7462 187.839 84.6148 187.303C83.4834 186.767 82.5907 186.039 81.916 185.129C81.2413 184.208 80.9092 183.187 80.9092 182.065C80.9092 180.204 81.6773 178.738 83.2239 177.666C84.7705 176.594 86.8049 175.856 89.3273 175.472L94.6106 174.723V174.015C94.6106 172.994 94.3719 172.205 93.884 171.659C93.3962 171.113 92.5554 170.83 91.3409 170.83C90.4587 170.83 89.7425 171.002 89.2027 171.336C88.6629 171.67 88.2478 172.125 87.9571 172.671C87.7391 173.014 87.4381 173.176 87.0333 173.176H83.2031C82.9125 173.176 82.6841 173.095 82.5181 172.923C82.352 172.751 82.2897 172.549 82.3208 172.317C82.3208 171.872 82.4973 171.346 82.8398 170.749C83.1928 170.143 83.7221 169.556 84.4487 168.959C85.1753 168.373 86.0991 167.877 87.2305 167.483C88.3619 167.089 89.7425 166.897 91.3825 166.897C93.0225 166.897 94.5276 167.089 95.7316 167.483C96.9357 167.877 97.9114 168.424 98.6276 169.131C99.3542 169.839 99.894 170.658 100.237 171.589C100.589 172.519 100.755 173.52 100.755 174.592V186.726C100.755 187.009 100.662 187.252 100.475 187.434C100.288 187.616 100.05 187.707 99.7486 187.707H95.8043C95.5344 187.707 95.3061 187.616 95.1192 187.434C94.9324 187.252 94.839 187.02 94.839 186.726V185.27C94.4861 185.766 94.019 186.231 93.4273 186.666C92.8357 187.1 92.1298 187.444 91.3098 187.707C90.4898 187.97 89.5349 188.102 88.4242 188.102L88.445 188.112ZM90.0539 184.037C90.9361 184.037 91.7354 183.854 92.4308 183.49C93.1263 183.126 93.6764 182.56 94.0812 181.802C94.486 181.043 94.6833 180.093 94.6833 178.94V178.273L90.9361 178.859C89.483 179.092 88.4242 179.446 87.7495 179.921C87.0748 180.396 86.7427 180.973 86.7427 181.65C86.7427 182.146 86.8984 182.58 87.2098 182.944C87.5212 183.308 87.926 183.581 88.4346 183.774C88.9432 183.956 89.483 184.047 90.0435 184.047L90.0539 184.037Z" fill="white"/>
<path d="M108.646 188.112C108.345 188.112 108.106 188.017 107.92 187.829C107.733 187.64 107.64 187.399 107.64 187.095V171.761H104.498C104.208 171.761 103.959 171.667 103.772 171.478C103.586 171.29 103.492 171.049 103.492 170.745V167.978C103.492 167.684 103.586 167.433 103.772 167.244C103.959 167.056 104.197 166.961 104.498 166.961H107.64V165.494C107.64 163.754 107.961 162.339 108.604 161.218C109.247 160.096 110.191 159.289 111.424 158.776C112.658 158.262 114.172 158 115.976 158H118.911C119.201 158 119.45 158.094 119.637 158.283C119.823 158.472 119.917 158.713 119.917 159.017V161.784C119.917 162.077 119.823 162.329 119.637 162.517C119.45 162.706 119.212 162.8 118.911 162.8H116.215C115.22 162.8 114.535 163.041 114.141 163.534C113.747 164.027 113.561 164.739 113.561 165.693V166.951H118.507C118.807 166.951 119.046 167.045 119.232 167.234C119.419 167.422 119.512 167.663 119.512 167.967V170.734C119.512 171.028 119.419 171.279 119.232 171.468C119.046 171.657 118.807 171.751 118.507 171.751H113.561V187.085C113.561 187.378 113.467 187.63 113.281 187.818C113.094 188.007 112.866 188.101 112.596 188.101H108.656L108.646 188.112Z" fill="white"/>
<path d="M131.914 188.112C128.908 188.112 126.528 187.272 124.774 185.601C123.009 183.921 122.081 181.492 121.97 178.294V176.603C122.071 174.589 122.535 172.848 123.342 171.401C124.148 169.943 125.288 168.83 126.75 168.061C128.213 167.291 129.917 166.897 131.873 166.897C134.062 166.897 135.897 167.352 137.369 168.253C138.842 169.154 139.951 170.389 140.697 171.947C141.443 173.506 141.817 175.298 141.817 177.312V178.213C141.817 178.476 141.716 178.698 141.524 178.881C141.332 179.063 141.101 179.154 140.838 179.154H128.041V179.468C128.071 180.308 128.233 181.077 128.535 181.765C128.838 182.464 129.261 183.02 129.826 183.435C130.391 183.85 131.056 184.063 131.843 184.063C132.498 184.063 133.033 183.972 133.446 183.79C133.86 183.608 134.213 183.385 134.485 183.122C134.757 182.859 134.959 182.636 135.09 182.454C135.322 182.19 135.514 182.029 135.655 181.958C135.796 181.897 136.028 181.856 136.341 181.856H140.415C140.677 181.856 140.889 181.927 141.06 182.069C141.232 182.211 141.302 182.413 141.272 182.676C141.242 183.091 141.03 183.618 140.627 184.225C140.223 184.842 139.628 185.44 138.842 186.037C138.055 186.624 137.087 187.12 135.927 187.514C134.767 187.909 133.426 188.102 131.914 188.102V188.112ZM128.031 175.581H135.705V175.5C135.705 174.559 135.554 173.739 135.252 173.04C134.949 172.342 134.515 171.806 133.941 171.411C133.366 171.016 132.68 170.824 131.863 170.824C131.046 170.824 130.361 171.016 129.786 171.411C129.211 171.806 128.777 172.352 128.475 173.04C128.172 173.739 128.021 174.549 128.021 175.5V175.581H128.031Z" fill="white"/>
<path d="M9.01222 224.855C8.71704 224.855 8.48294 224.759 8.29973 224.569C8.11651 224.379 8.0249 224.135 8.0249 223.828V197.138C8.0249 196.842 8.11651 196.588 8.29973 196.397C8.48294 196.207 8.71704 196.112 9.01222 196.112H13.3177C13.6027 196.112 13.847 196.207 14.0302 196.397C14.2135 196.588 14.305 196.831 14.305 197.138V207.399H25.0129V197.138C25.0129 196.842 25.1045 196.588 25.2877 196.397C25.4709 196.207 25.705 196.112 26.0002 196.112H30.3057C30.6009 196.112 30.835 196.207 31.0182 196.397C31.2014 196.588 31.293 196.831 31.293 197.138V223.828C31.293 224.125 31.2014 224.379 31.0182 224.569C30.835 224.759 30.6009 224.855 30.3057 224.855H26.0002C25.705 224.855 25.4709 224.759 25.2877 224.569C25.1045 224.379 25.0129 224.135 25.0129 223.828V213.228H14.305V223.828C14.305 224.125 14.2135 224.379 14.0302 224.569C13.847 224.759 13.6129 224.855 13.3177 224.855H9.01222Z" fill="white"/>
<path d="M43.6193 224.855C42.1972 224.855 40.9205 224.573 39.7891 224.02C38.6577 223.466 37.765 222.715 37.0903 221.775C36.4157 220.825 36.0835 219.771 36.0835 218.613C36.0835 216.692 36.8516 215.178 38.3982 214.072C39.9448 212.965 41.9793 212.203 44.5016 211.807L49.7849 211.034V210.304C49.7849 209.249 49.5462 208.435 49.0583 207.872C48.5705 207.308 47.7297 207.016 46.5153 207.016C45.633 207.016 44.9168 207.193 44.377 207.538C43.8373 207.882 43.4221 208.352 43.1314 208.915C42.9135 209.27 42.6124 209.437 42.2076 209.437H38.3775C38.0868 209.437 37.8585 209.354 37.6924 209.176C37.5263 208.999 37.464 208.79 37.4952 208.55C37.4952 208.091 37.6716 207.548 38.0142 206.932C38.3671 206.306 38.8964 205.7 39.623 205.085C40.3496 204.479 41.2734 203.968 42.4048 203.561C43.5362 203.154 44.9168 202.955 46.5568 202.955C48.1968 202.955 49.7019 203.154 50.9059 203.561C52.11 203.968 53.0857 204.531 53.8019 205.262C54.5285 205.993 55.0683 206.838 55.4108 207.799C55.7637 208.759 55.9298 209.792 55.9298 210.899V223.425C55.9298 223.717 55.8364 223.967 55.6496 224.155C55.4627 224.343 55.224 224.437 54.923 224.437H50.9786C50.7087 224.437 50.4804 224.343 50.2935 224.155C50.1067 223.967 50.0133 223.727 50.0133 223.425V221.921C49.6604 222.433 49.1933 222.913 48.6016 223.362C48.01 223.811 47.3041 224.166 46.4841 224.437C45.6641 224.708 44.7092 224.844 43.5985 224.844L43.6193 224.855ZM45.2282 220.638C46.1104 220.638 46.9097 220.45 47.6052 220.074C48.3006 219.698 48.8507 219.114 49.2556 218.331C49.6604 217.548 49.8576 216.567 49.8576 215.377V214.688L46.1105 215.293C44.6573 215.533 43.5985 215.899 42.9238 216.389C42.2491 216.88 41.917 217.475 41.917 218.174C41.917 218.686 42.0727 219.134 42.3841 219.51C42.6955 219.886 43.1003 220.168 43.6089 220.366C44.1175 220.554 44.6573 220.648 45.2178 220.648L45.2282 220.638Z" fill="white"/>
<path d="M61.6765 224.844C61.409 224.844 61.1827 224.75 60.9975 224.56C60.8123 224.371 60.7197 224.13 60.7197 223.825V204.659C60.7197 204.386 60.8123 204.144 60.9975 203.944C61.1827 203.745 61.409 203.64 61.6765 203.64H65.5857C65.8531 203.64 66.0897 203.745 66.2852 203.944C66.4807 204.144 66.5835 204.386 66.5835 204.659V206.288C67.2522 205.447 68.0649 204.795 69.0422 204.333C70.0092 203.871 71.1408 203.64 72.4165 203.64H74.1345C74.4019 203.64 74.6283 203.734 74.8134 203.923C74.9986 204.112 75.0912 204.354 75.0912 204.659V208.168C75.0912 208.463 74.9986 208.715 74.8134 208.904C74.6283 209.093 74.4019 209.188 74.1345 209.188H70.6162C69.4434 209.188 68.5278 209.524 67.8592 210.186C67.1905 210.848 66.8613 211.794 66.8613 213.023V223.835C66.8613 224.13 66.7687 224.382 66.5835 224.571C66.3984 224.76 66.1617 224.855 65.8634 224.855H61.6662L61.6765 224.844Z" fill="white"/>
<path d="M90.2531 224.855C88.6855 224.855 87.3827 224.598 86.3448 224.073C85.3068 223.559 84.4489 222.89 83.7922 222.099V223.456C83.7922 223.744 83.6969 223.991 83.5062 224.176C83.3156 224.361 83.072 224.454 82.7648 224.454H78.8565C78.5493 224.454 78.3057 224.361 78.1151 224.176C77.9244 223.991 77.8291 223.754 77.8291 223.456V197.109C77.8291 196.821 77.9244 196.574 78.1151 196.389C78.3057 196.204 78.5493 196.112 78.8565 196.112H83.0931C83.3685 196.112 83.6015 196.204 83.7922 196.389C83.9828 196.574 84.0782 196.811 84.0782 197.109V205.809C84.7666 205.069 85.6139 204.462 86.6307 203.989C87.6475 203.526 88.855 203.29 90.2531 203.29C91.6512 203.29 92.9222 203.526 93.9707 203.989C95.0299 204.452 95.9196 205.11 96.661 205.943C97.4024 206.776 97.9744 207.773 98.3663 208.915C98.7582 210.056 98.9806 211.321 99.0018 212.71C99.0335 213.193 99.0441 213.635 99.0441 214.046C99.0441 214.458 99.0335 214.921 99.0018 215.424C98.9488 216.833 98.7158 218.119 98.3239 219.281C97.9214 220.443 97.3601 221.44 96.6398 222.273C95.909 223.117 95.0193 223.754 93.9707 224.186C92.9116 224.628 91.6724 224.844 90.2531 224.844V224.855ZM88.3995 220.062C89.4375 220.062 90.2637 219.846 90.8674 219.404C91.4711 218.962 91.9054 218.386 92.1596 217.666C92.4138 216.946 92.5726 216.165 92.6362 215.311C92.6891 214.489 92.6891 213.666 92.6362 212.833C92.5832 211.979 92.4244 211.198 92.1596 210.478C91.8948 209.758 91.4711 209.182 90.8674 208.74C90.2637 208.298 89.4375 208.082 88.3995 208.082C87.4145 208.082 86.6096 208.298 85.9952 208.719C85.3809 209.141 84.9149 209.686 84.5972 210.334C84.2794 210.982 84.1099 211.681 84.0782 212.432C84.0464 212.915 84.0358 213.399 84.0358 213.913C84.0358 214.427 84.0464 214.921 84.0782 215.435C84.1311 216.237 84.3006 216.977 84.576 217.666C84.8513 218.355 85.3068 218.931 85.9317 219.384C86.5566 219.836 87.3827 220.062 88.3995 220.062Z" fill="white"/>
<path d="M112.732 224.855C110.529 224.855 108.685 224.479 107.199 223.738C105.714 222.997 104.577 221.932 103.798 220.554C103.02 219.176 102.589 217.569 102.507 215.732C102.477 215.189 102.466 214.573 102.466 213.884C102.466 213.195 102.477 212.59 102.507 212.078C102.589 210.21 103.04 208.602 103.86 207.235C104.679 205.867 105.837 204.813 107.322 204.072C108.808 203.331 110.611 202.955 112.732 202.955C114.852 202.955 116.614 203.331 118.1 204.072C119.585 204.813 120.743 205.867 121.563 207.235C122.382 208.602 122.833 210.21 122.915 212.078C122.966 212.59 122.997 213.195 122.997 213.884C122.997 214.573 122.966 215.189 122.915 215.732C122.833 217.569 122.403 219.176 121.624 220.554C120.846 221.932 119.708 222.997 118.223 223.738C116.737 224.479 114.904 224.855 112.732 224.855ZM112.732 220.397C114.033 220.397 115.016 219.99 115.672 219.166C116.338 218.341 116.696 217.13 116.748 215.544C116.778 215.137 116.789 214.594 116.789 213.926C116.789 213.258 116.778 212.715 116.748 212.308C116.696 210.742 116.338 209.542 115.672 208.707C115.006 207.872 114.033 207.454 112.732 207.454C111.431 207.454 110.447 207.872 109.771 208.707C109.095 209.542 108.726 210.742 108.675 212.308C108.644 212.715 108.634 213.258 108.634 213.926C108.634 214.594 108.644 215.137 108.675 215.544C108.726 217.141 109.095 218.352 109.771 219.166C110.447 219.99 111.431 220.397 112.732 220.397Z" fill="white"/>
<path d="M134.994 224.855C133.439 224.855 132.059 224.504 130.867 223.793C129.675 223.082 128.752 222.061 128.088 220.711C127.435 219.36 127.103 217.731 127.103 215.804V204.64C127.103 204.351 127.196 204.103 127.383 203.918C127.57 203.732 127.798 203.64 128.067 203.64H132.339C132.63 203.64 132.879 203.732 133.065 203.918C133.252 204.103 133.345 204.341 133.345 204.64V215.567C133.345 218.556 134.662 220.051 137.285 220.051C138.55 220.051 139.546 219.659 140.282 218.865C141.018 218.082 141.392 216.979 141.392 215.567V204.64C141.392 204.351 141.485 204.103 141.672 203.918C141.858 203.732 142.097 203.64 142.397 203.64H146.669C146.939 203.64 147.167 203.732 147.354 203.918C147.54 204.103 147.634 204.341 147.634 204.64V223.442C147.634 223.731 147.54 223.978 147.354 224.164C147.167 224.349 146.939 224.442 146.669 224.442H142.729C142.439 224.442 142.19 224.349 142.003 224.164C141.817 223.978 141.723 223.741 141.723 223.442V221.886C141.029 222.844 140.127 223.576 139.027 224.092C137.928 224.597 136.591 224.855 135.004 224.855H134.994Z" fill="white"/>
<path d="M154.065 224.844C153.797 224.844 153.571 224.75 153.386 224.56C153.2 224.371 153.108 224.13 153.108 223.825V204.659C153.108 204.386 153.2 204.144 153.386 203.944C153.571 203.745 153.797 203.64 154.065 203.64H157.974C158.241 203.64 158.478 203.745 158.673 203.944C158.869 204.144 158.972 204.386 158.972 204.659V206.288C159.64 205.447 160.453 204.795 161.43 204.333C162.397 203.871 163.529 203.64 164.805 203.64H166.523C166.79 203.64 167.016 203.734 167.202 203.923C167.387 204.112 167.479 204.354 167.479 204.659V208.168C167.479 208.463 167.387 208.715 167.202 208.904C167.016 209.093 166.79 209.188 166.523 209.188H163.004C161.832 209.188 160.916 209.524 160.247 210.186C159.579 210.848 159.249 211.794 159.249 213.023V223.835C159.249 224.13 159.157 224.382 158.972 224.571C158.787 224.76 158.55 224.855 158.252 224.855H154.054L154.065 224.844Z" fill="white"/>
<path d="M178.972 224.834C177.308 224.834 175.873 224.635 174.677 224.248C173.481 223.862 172.514 223.381 171.775 222.806C171.037 222.241 170.486 221.666 170.122 221.081C169.758 220.496 169.56 220.004 169.54 219.597C169.508 219.304 169.602 219.053 169.82 218.865C170.039 218.677 170.247 218.583 170.465 218.583H174.375C174.459 218.583 174.542 218.593 174.615 218.625C174.698 218.656 174.781 218.719 174.854 218.823C175.207 219.064 175.571 219.346 175.946 219.659C176.32 219.973 176.757 220.234 177.256 220.454C177.755 220.673 178.379 220.778 179.128 220.778C180.012 220.778 180.771 220.6 181.385 220.234C181.998 219.868 182.31 219.346 182.31 218.677C182.31 218.185 182.165 217.788 181.884 217.464C181.603 217.14 181.073 216.837 180.293 216.576C179.513 216.304 178.358 216.011 176.819 215.687C175.363 215.363 174.126 214.935 173.107 214.391C172.087 213.847 171.318 213.168 170.808 212.342C170.299 211.516 170.039 210.523 170.039 209.363C170.039 208.307 170.372 207.293 171.027 206.321C171.682 205.349 172.659 204.544 173.949 203.906C175.239 203.269 176.85 202.955 178.795 202.955C180.272 202.955 181.572 203.133 182.695 203.499C183.808 203.865 184.744 204.325 185.503 204.879C186.252 205.433 186.824 205.997 187.219 206.582C187.614 207.168 187.822 207.67 187.843 208.109C187.874 208.38 187.791 208.61 187.604 208.799C187.417 208.987 187.198 209.081 186.959 209.081H183.371C183.236 209.081 183.111 209.06 183.007 209.018C182.903 208.976 182.809 208.914 182.726 208.84C182.404 208.621 182.071 208.37 181.738 208.088C181.406 207.806 181 207.555 180.542 207.335C180.085 207.116 179.492 207.011 178.764 207.011C177.88 207.011 177.194 207.21 176.726 207.596C176.258 207.994 176.019 208.485 176.019 209.081C176.019 209.457 176.143 209.813 176.382 210.137C176.622 210.461 177.121 210.764 177.88 211.025C178.629 211.297 179.773 211.579 181.312 211.872C183.142 212.196 184.598 212.687 185.669 213.335C186.741 213.983 187.52 214.736 187.988 215.583C188.456 216.44 188.696 217.349 188.696 218.321C188.696 219.597 188.321 220.726 187.562 221.708C186.813 222.691 185.711 223.464 184.276 224.018C182.841 224.572 181.062 224.855 178.972 224.855V224.834Z" fill="white"/>
<path d="M111.948 73.5632C109.636 73.5632 107.759 75.0409 107.759 76.8432V83.0001C107.759 83.4703 108.193 83.8621 108.742 83.8621H115.166C115.703 83.8621 116.15 83.4814 116.15 83.0001V76.8432C116.15 75.0409 114.259 73.5632 111.961 73.5632H111.948Z" fill="url(#paint0_linear_1044_6403)"/>
<path d="M104.72 105.931C106.421 106.543 107.77 106.968 109.033 107.296C109.191 107.331 109.361 107.367 109.519 107.402C109.738 107.172 109.993 106.959 110.285 106.764C110.698 106.481 111.123 106.206 111.573 105.931H104.708H104.72Z" fill="url(#paint1_linear_1044_6403)"/>
<path d="M31.0487 13.4512L49.7564 16.9934C43.936 22.1902 39.0957 28.3891 35.5381 35.3103L102.419 31.5468V27.9346L52.8663 14.3834L32.5976 8.84868C32.3193 8.76711 32.0168 8.93024 31.9321 9.19824L30.7341 12.8919C30.6615 13.125 30.8067 13.3696 31.0487 13.4396V13.4512Z" fill="url(#paint2_linear_1044_6403)"/>
<path d="M111.948 50.7586C109.636 50.7586 107.759 52.3418 107.759 54.2729V60.8696C107.759 61.3733 108.193 61.7931 108.742 61.7931H115.166C115.703 61.7931 116.15 61.3853 116.15 60.8696V54.2729C116.15 52.3418 114.259 50.7586 111.961 50.7586H111.948Z" fill="url(#paint3_linear_1044_6403)"/>
<path d="M116.149 102.989H99.3672C99.9825 103.239 100.598 103.482 101.201 103.724H114.653C115.135 103.482 115.63 103.239 116.149 102.989Z" fill="url(#paint4_linear_1044_6403)"/>
<path d="M117.675 31.3878V29.8606C117.675 29.2242 117.338 28.6897 116.912 28.6897C116.496 28.6897 116.149 29.2115 116.149 29.8606V31.3878C116.149 31.9224 116.486 32.3678 116.912 32.3678C117.338 32.3678 117.675 31.9351 117.675 31.3878Z" fill="url(#paint5_linear_1044_6403)"/>
<path d="M106.996 32.3678C107.412 32.3678 107.759 31.9351 107.759 31.3878V29.8606C107.759 29.2242 107.422 28.6897 106.996 28.6897C106.58 28.6897 106.233 29.2115 106.233 29.8606V31.3878C106.233 31.9224 106.57 32.3678 106.996 32.3678Z" fill="url(#paint6_linear_1044_6403)"/>
<path d="M94.3944 0C83.543 0 73.3128 2.52394 64.2882 6.99661L102.542 27.2116V26.2608C102.542 25.7677 102.956 25.3568 103.48 25.3568H120.36C120.871 25.3568 121.298 25.756 121.298 26.2608V33.6095C121.298 34.1026 120.883 34.5135 120.36 34.5135H103.48C102.968 34.5135 102.542 34.1143 102.542 33.6095V32.33L29.274 53.3315C29.274 53.3315 29.274 53.3785 29.274 53.402L16.7541 57.0059C16.3644 57.1233 16.133 57.5225 16.2547 57.9099L17.7162 63.1456C17.8136 63.4743 18.179 63.6621 18.52 63.5564L28.5432 59.7647C28.458 61.0325 28.4093 62.3121 28.4093 63.6034C28.4093 76.0823 32.1482 87.7276 38.5908 97.5534C43.438 96.3912 48.5044 95.4755 53.9118 94.7947C64.4831 93.562 72.6551 93.6207 80.4496 94.9707C82.7879 95.3816 85.1385 95.9921 87.4768 96.7903C87.5377 96.8138 87.5986 96.8373 87.6595 96.8608L89.2062 97.4595C89.2062 97.4595 89.2915 97.4947 89.328 97.5064C89.7421 97.6825 90.1562 97.8703 90.5581 98.0699C90.7042 98.1403 90.8504 98.2108 91.0087 98.2812C91.2279 98.3869 91.4228 98.4808 91.6176 98.5747L92.8964 92.3294C92.9817 91.9068 93.3714 91.6016 93.8098 91.6016H130.03C130.48 91.6016 130.858 91.9068 130.943 92.3294L131.698 96.0155C134.999 95.1703 138.397 94.5834 141.868 94.3016C145.278 94.0081 148.749 94.0081 152.22 94.2781C157.42 85.1802 160.392 74.7322 160.392 63.6034C160.38 28.4795 130.846 0 94.3944 0ZM111.92 23.4786H102.189C101.361 23.4786 100.947 22.5159 101.531 21.9407L111.262 12.4906C111.628 12.1384 112.224 12.1384 112.59 12.4906L122.321 21.9407C122.905 22.5042 122.491 23.4786 121.663 23.4786H111.932H111.92ZM101.142 36.5091H122.686C123.295 36.5091 123.746 37.0609 123.587 37.6244L122.357 42.3084C122.248 42.7075 121.882 42.9892 121.456 42.9892H102.359C101.933 42.9892 101.556 42.7075 101.458 42.3084L100.228 37.6244C100.082 37.0609 100.52 36.5091 101.129 36.5091H101.142ZM127.57 90.0872H96.2578C95.6976 90.0872 95.2591 89.6059 95.3322 89.0659L101.531 45.5601C101.592 45.114 101.994 44.7853 102.457 44.7853H121.371C121.833 44.7853 122.235 45.114 122.296 45.5601L128.495 89.0659C128.568 89.6059 128.142 90.0872 127.57 90.0872Z" fill="url(#paint7_linear_1044_6403)"/>
<path d="M111.953 32.3678C112.577 32.3678 113.097 31.9351 113.097 31.3878V29.8606C113.097 29.2242 112.592 28.6897 111.953 28.6897C111.329 28.6897 110.809 29.2115 110.809 29.8606V31.3878C110.809 31.9224 111.314 32.3678 111.953 32.3678Z" fill="url(#paint8_linear_1044_6403)"/>
<path d="M36.0552 112.339C38.5155 111.048 41.1473 110.054 43.8402 109.26C46.5331 108.443 49.2995 107.851 52.1026 107.413C57.721 106.548 63.4986 106.442 69.2517 107.058C72.1282 107.366 74.9803 107.887 77.7956 108.585C79.2155 108.917 80.5987 109.331 81.9942 109.757C83.3651 110.231 84.7483 110.681 86.0948 111.226C87.4657 111.723 88.7754 112.351 90.0974 112.943C90.7584 113.251 91.3949 113.594 92.0437 113.914L93.0107 114.399L93.8431 114.802C96.0096 115.962 98.2742 116.803 100.563 117.454C101.138 117.596 101.702 117.798 102.289 117.904L104.027 118.26L105.79 118.485C106.377 118.556 106.977 118.567 107.577 118.615C109.964 118.757 112.388 118.615 114.86 118.271C117.333 117.952 119.83 117.383 122.388 116.756L124.31 116.247L126.244 115.702L130.161 114.589C135.424 113.097 140.957 111.569 146.722 111.107C152.476 110.634 158.412 111.415 163.443 113.772C160.664 113.535 157.935 113.547 155.279 113.819C152.622 114.091 150.04 114.624 147.518 115.347C142.463 116.803 137.628 118.946 132.585 121.066C130.063 122.12 127.48 123.186 124.787 124.121C122.094 125.08 119.279 125.874 116.341 126.454C113.404 127.034 110.331 127.306 107.234 127.259C106.463 127.224 105.68 127.2 104.909 127.129L102.583 126.856L100.294 126.418C99.5227 126.276 98.7883 126.039 98.0416 125.85C97.6744 125.743 97.2949 125.649 96.9277 125.53L95.8383 125.151C95.1161 124.891 94.3816 124.666 93.6839 124.334L91.5908 123.422C90.9176 123.091 90.2443 122.736 89.5833 122.38L88.6041 121.848L87.7717 121.386C87.2087 121.078 86.6578 120.758 86.0948 120.462C84.9564 119.894 83.818 119.302 82.6551 118.781C78.016 116.614 73.1075 114.98 68.0399 113.784C62.96 112.599 57.7088 111.901 52.3597 111.652C47.0105 111.415 41.5634 111.569 36.0552 112.303V112.339Z" fill="url(#paint9_linear_1044_6403)"/>
<path d="M30.7275 104.775C38.5515 102.152 46.668 100.451 54.9063 99.4228C63.1447 98.454 71.578 98.0878 80.0479 99.5646C82.1562 99.9426 84.2767 100.498 86.3485 101.207L87.8962 101.809C88.4081 102.022 88.9077 102.282 89.4196 102.518C89.9436 102.766 90.3702 103.003 90.8211 103.239L92.1738 103.959C95.769 105.885 99.3032 107.894 102.85 109.678C104.629 110.54 106.408 111.343 108.236 111.958C110.064 112.548 111.965 112.95 113.915 113.163C117.839 113.529 121.959 113.198 126.066 112.856C125.091 113.186 124.104 113.494 123.116 113.801C122.117 114.061 121.118 114.344 120.106 114.581C118.083 115.053 115.987 115.372 113.842 115.478C111.697 115.549 109.516 115.384 107.383 114.935C105.263 114.474 103.227 113.789 101.265 113.033C97.3533 111.485 93.685 109.666 90.0168 107.894L88.6396 107.22C88.1887 106.996 87.7134 106.748 87.3113 106.582C86.8847 106.405 86.4826 106.204 86.0438 106.039L84.7155 105.566C82.924 104.976 81.0594 104.503 79.1339 104.172C71.4317 102.814 63.2909 102.814 55.1988 103.085C47.0823 103.381 38.9415 104.054 30.7153 104.763L30.7275 104.775Z" fill="url(#paint10_linear_1044_6403)"/>
<path d="M116.149 110.345C117.587 108.686 119.242 107.233 120.97 105.889C122.735 104.593 124.596 103.383 126.553 102.366C130.468 100.307 134.698 98.8421 139.048 97.9945C143.398 97.1348 147.857 96.9169 152.244 97.2559C156.63 97.6676 160.932 98.6483 164.968 100.331C160.582 100.549 156.389 100.586 152.22 100.888C148.063 101.227 143.978 101.748 139.942 102.523C135.906 103.31 131.931 104.363 127.991 105.695C126.009 106.337 124.064 107.1 122.094 107.851C120.137 108.65 118.179 109.485 116.161 110.345H116.149Z" fill="url(#paint11_linear_1044_6403)"/>
<path d="M43.6831 119.67C45.5365 118.742 47.5119 118.075 49.5117 117.516C51.5236 117.016 53.5843 116.623 55.6816 116.433C59.8519 116.028 64.1074 116.231 68.2289 117.016C72.3625 117.79 76.3742 119.146 80.1055 120.955C83.8246 122.823 87.2632 125.168 90.214 128C86.2755 126.667 82.5686 125.239 78.7886 124.049C75.0086 122.895 71.2285 121.919 67.3997 121.193C63.5709 120.467 59.6934 119.991 55.7548 119.765C53.7794 119.622 51.8041 119.61 49.7921 119.575C47.7802 119.575 45.756 119.622 43.6831 119.658V119.67Z" fill="url(#paint12_linear_1044_6403)"/>
<defs>
<linearGradient id="paint0_linear_1044_6403" x1="107.759" y1="78.7126" x2="116.15" y2="78.7126" gradientUnits="userSpaceOnUse">
<stop stop-color="#ECD455"/>
<stop offset="1" stop-color="#FFC700"/>
</linearGradient>
<linearGradient id="paint1_linear_1044_6403" x1="104.708" y1="106.667" x2="111.573" y2="106.667" gradientUnits="userSpaceOnUse">
<stop stop-color="#ECD455"/>
<stop offset="1" stop-color="#FFC700"/>
</linearGradient>
<linearGradient id="paint2_linear_1044_6403" x1="30.7153" y1="22.069" x2="102.419" y2="22.069" gradientUnits="userSpaceOnUse">
<stop stop-color="#ECD455"/>
<stop offset="1" stop-color="#FFC700"/>
</linearGradient>
<linearGradient id="paint3_linear_1044_6403" x1="107.759" y1="56.2759" x2="116.15" y2="56.2759" gradientUnits="userSpaceOnUse">
<stop stop-color="#ECD455"/>
<stop offset="1" stop-color="#FFC700"/>
</linearGradient>
<linearGradient id="paint4_linear_1044_6403" x1="99.3672" y1="103.356" x2="116.149" y2="103.356" gradientUnits="userSpaceOnUse">
<stop stop-color="#ECD455"/>
<stop offset="1" stop-color="#FFC700"/>
</linearGradient>
<linearGradient id="paint5_linear_1044_6403" x1="116.149" y1="30.5287" x2="117.675" y2="30.5287" gradientUnits="userSpaceOnUse">
<stop stop-color="#ECD455"/>
<stop offset="1" stop-color="#FFC700"/>
</linearGradient>
<linearGradient id="paint6_linear_1044_6403" x1="106.233" y1="30.5287" x2="107.759" y2="30.5287" gradientUnits="userSpaceOnUse">
<stop stop-color="#ECD455"/>
<stop offset="1" stop-color="#FFC700"/>
</linearGradient>
<linearGradient id="paint7_linear_1044_6403" x1="16.2222" y1="49.2874" x2="160.392" y2="49.2874" gradientUnits="userSpaceOnUse">
<stop stop-color="#ECD455"/>
<stop offset="1" stop-color="#FFC700"/>
</linearGradient>
<linearGradient id="paint8_linear_1044_6403" x1="110.809" y1="30.5287" x2="113.097" y2="30.5287" gradientUnits="userSpaceOnUse">
<stop stop-color="#ECD455"/>
<stop offset="1" stop-color="#FFC700"/>
</linearGradient>
<linearGradient id="paint9_linear_1044_6403" x1="36.0552" y1="116.966" x2="163.443" y2="116.966" gradientUnits="userSpaceOnUse">
<stop stop-color="#ECD455"/>
<stop offset="1" stop-color="#FFC700"/>
</linearGradient>
<linearGradient id="paint10_linear_1044_6403" x1="30.7153" y1="107.034" x2="126.066" y2="107.034" gradientUnits="userSpaceOnUse">
<stop stop-color="#ECD455"/>
<stop offset="1" stop-color="#FFC700"/>
</linearGradient>
<linearGradient id="paint11_linear_1044_6403" x1="116.149" y1="103.724" x2="164.968" y2="103.724" gradientUnits="userSpaceOnUse">
<stop stop-color="#ECD455"/>
<stop offset="1" stop-color="#FFC700"/>
</linearGradient>
<linearGradient id="paint12_linear_1044_6403" x1="43.6831" y1="122.115" x2="90.214" y2="122.115" gradientUnits="userSpaceOnUse">
<stop stop-color="#ECD455"/>
<stop offset="1" stop-color="#FFC700"/>
</linearGradient>
</defs>
</svg>
